<svg id="SvgjsSvg1001" width="288" height="288" xmlns="http://www.w3.org/2000/svg" version="1.1" xmlns:xlink="http://www.w3.org/1999/xlink" xmlns:svgjs="http://svgjs.com/svgjs"><defs id="SvgjsDefs1002"></defs><g id="SvgjsG1008"><svg xmlns="http://www.w3.org/2000/svg" xmlns:xlink="http://www.w3.org/1999/xlink" viewBox="0 0 512 512" width="288" height="288"><defs><linearGradient id="a" x1="63.774" x2="541.039" y1="546.724" y2="69.46" data-name="New Gradient Swatch 1" gradientUnits="userSpaceOnUse"><stop offset="0" stop-color="#25b908" class="stopColor003f8a svgShape"></stop><stop offset=".518" stop-color="#1b9e00" class="stopColor00d7df svgShape"></stop><stop offset="1" stop-color="#209405" class="stopColor006df0 svgShape"></stop></linearGradient><linearGradient id="b" x1="18.525" x2="495.789" y1="501.475" y2="24.211" xlink:href="#a"></linearGradient><linearGradient id="c" x1="-45.475" x2="431.789" y1="437.475" y2="-39.789" xlink:href="#a"></linearGradient><linearGradient id="d" x1="2.525" x2="479.789" y1="485.475" y2="8.211" xlink:href="#a"></linearGradient><linearGradient id="e" x1="-57.475" x2="419.789" y1="425.475" y2="-51.789" xlink:href="#a"></linearGradient><linearGradient id="f" x1="-69.475" x2="407.789" y1="413.475" y2="-63.789" xlink:href="#a"></linearGradient><linearGradient id="g" x1="-81.475" x2="395.789" y1="401.475" y2="-75.789" xlink:href="#a"></linearGradient><linearGradient id="h" x1="-41.475" x2="435.789" y1="441.475" y2="-35.789" xlink:href="#a"></linearGradient><linearGradient id="i" x1="-53.475" x2="423.789" y1="429.475" y2="-47.789" xlink:href="#a"></linearGradient><linearGradient id="j" x1="-65.475" x2="411.789" y1="417.475" y2="-59.789" xlink:href="#a"></linearGradient></defs><path fill="url(#a)" d="M503.75,494.03,485,420.4c-.02-.08-.04-.15-.06-.23a87.824,87.824,0,0,0-66.48-61.94L320,337.51V313.3A80.093,80.093,0,0,0,368,240h4a28.031,28.031,0,0,0,28-28V188a28.031,28.031,0,0,0-28-28h-4V120a112,112,0,0,0-224,0v40h-4a28.031,28.031,0,0,0-28,28v24a28.031,28.031,0,0,0,28,28h4a80.093,80.093,0,0,0,48,73.3v24.21L93.54,358.23a87.824,87.824,0,0,0-66.48,61.94c-.02.08-.04.15-.06.23L8.25,494.03A7.99,7.99,0,0,0,16,504H496a7.99,7.99,0,0,0,7.75-9.97ZM368,176h4a12.01,12.01,0,0,1,12,12v24a12.01,12.01,0,0,1-12,12h-4ZM144,224h-4a12.01,12.01,0,0,1-12-12V188a12.01,12.01,0,0,1,12-12h4Zm16,16V120a96,96,0,0,1,192,0V240a64.072,64.072,0,0,1-64,64H224A64.072,64.072,0,0,1,160,240Zm144,78.39v22.6l-49.08,56.09L208,341.09v-22.7A80.321,80.321,0,0,0,224,320h64A80.321,80.321,0,0,0,304,318.39ZM280,488H112V456a8,8,0,0,0-16,0v32H26.29l16.18-63.54a71.868,71.868,0,0,1,54.37-50.57l100.11-21.07L280,451.91Zm136,0V456a8,8,0,0,0-16,0v32H296V449a7.987,7.987,0,0,0-1.87-5.14l-28.8-34.37,49.61-56.7,100.22,21.1a71.868,71.868,0,0,1,54.37,50.57L485.71,488Z"></path><path fill="url(#b)" d="M224,264a8,8,0,0,0,8,8h48a8,8,0,0,0,0-16H232A8,8,0,0,0,224,264Z"></path><path fill="url(#c)" d="M232,184a8,8,0,0,0-8-8H192a8,8,0,0,0,0,16h32A8,8,0,0,0,232,184Z"></path><path fill="url(#d)" d="M288,192h32a8,8,0,0,0,0-16H288a8,8,0,0,0,0,16Z"></path><circle cx="240" cy="128" r="8" fill="url(#e)"></circle><circle cx="240" cy="104" r="8" fill="url(#f)"></circle><circle cx="240" cy="80" r="8" fill="url(#g)"></circle><circle cx="272" cy="128" r="8" fill="url(#h)"></circle><circle cx="272" cy="104" r="8" fill="url(#i)"></circle><circle cx="272" cy="80" r="8" fill="url(#j)"></circle></svg></g></svg>