<svg id="SvgjsSvg1001" width="288" height="288" xmlns="http://www.w3.org/2000/svg" version="1.1" xmlns:xlink="http://www.w3.org/1999/xlink" xmlns:svgjs="http://svgjs.com/svgjs"><defs id="SvgjsDefs1002"></defs><g id="SvgjsG1008"><svg xmlns="http://www.w3.org/2000/svg" viewBox="0 0 512 512" width="288" height="288"><path fill="#767fad" d="M496,496H16l18.75-73.63a80.021,80.021,0,0,1,60.44-56.31L200,344l54.35,64.85L312,344l104.81,22.06a80.021,80.021,0,0,1,60.44,56.31Z" class="color57a4ff svgShape"></path><line x1="254.35" x2="248" y1="408.85" y2="416" fill="#57a4ff"></line><circle cx="240" cy="128" r="8" fill="#767fad" class="color57a4ff svgShape"></circle><circle cx="240" cy="104" r="8" fill="#767fad" class="color57a4ff svgShape"></circle><circle cx="240" cy="80" r="8" fill="#767fad" class="color57a4ff svgShape"></circle><circle cx="272" cy="128" r="8" fill="#767fad" class="color57a4ff svgShape"></circle><circle cx="272" cy="104" r="8" fill="#767fad" class="color57a4ff svgShape"></circle><circle cx="272" cy="80" r="8" fill="#767fad" class="color57a4ff svgShape"></circle><path fill="#767fad" d="M503.75,494.03,485,420.4c-.02-.08-.04-.15-.06-.23a87.824,87.824,0,0,0-66.48-61.94L320,337.51V313.3A80.093,80.093,0,0,0,368,240h4a28.031,28.031,0,0,0,28-28V188a28.031,28.031,0,0,0-28-28h-4V120a112,112,0,0,0-224,0v40h-4a28.031,28.031,0,0,0-28,28v24a28.031,28.031,0,0,0,28,28h4a80.093,80.093,0,0,0,48,73.3v24.21L93.54,358.23a87.824,87.824,0,0,0-66.48,61.94c-.02.08-.04.15-.06.23L8.25,494.03A7.99,7.99,0,0,0,16,504H496a7.99,7.99,0,0,0,7.75-9.97ZM368,176h4a12.01,12.01,0,0,1,12,12v24a12.01,12.01,0,0,1-12,12h-4ZM144,224h-4a12.01,12.01,0,0,1-12-12V188a12.01,12.01,0,0,1,12-12h4Zm16,16V120a96,96,0,0,1,192,0V240a64.072,64.072,0,0,1-64,64H224A64.072,64.072,0,0,1,160,240Zm144,78.39v22.6l-49.08,56.09L208,341.09v-22.7A80.321,80.321,0,0,0,224,320h64A80.321,80.321,0,0,0,304,318.39ZM280,488H112V456a8,8,0,0,0-16,0v32H26.29l16.18-63.54a71.868,71.868,0,0,1,54.37-50.57l100.11-21.07L280,451.91Zm136,0V456a8,8,0,0,0-16,0v32H296V449a7.987,7.987,0,0,0-1.87-5.14l-28.8-34.37,49.61-56.7,100.22,21.1a71.868,71.868,0,0,1,54.37,50.57L485.71,488Z" class="color004fac svgShape"></path><path fill="#767fad" d="M224 264a8 8 0 008 8h48a8 8 0 000-16H232A8 8 0 00224 264zM232 184a8 8 0 00-8-8H192a8 8 0 000 16h32A8 8 0 00232 184zM288 192h32a8 8 0 000-16H288a8 8 0 000 16z" class="color004fac svgShape"></path><circle cx="240" cy="128" r="8" fill="#767fad" class="color004fac svgShape"></circle><circle cx="240" cy="104" r="8" fill="#767fad" class="color004fac svgShape"></circle><circle cx="240" cy="80" r="8" fill="#767fad" class="color004fac svgShape"></circle><circle cx="272" cy="128" r="8" fill="#767fad" class="color004fac svgShape"></circle><circle cx="272" cy="104" r="8" fill="#767fad" class="color004fac svgShape"></circle><circle cx="272" cy="80" r="8" fill="#767fad" class="color004fac svgShape"></circle></svg></g></svg>